<svg width="20" height="24" viewBox="0 0 20 24" fill="none" xmlns="http://www.w3.org/2000/svg">
<path d="M10.1241 7.22201C9.24806 7.22201 7.89206 6.22601 6.46406 6.26201C4.58006 6.28601 2.85206 7.35401 1.88006 9.04601C-0.0759385 12.442 1.37606 17.458 3.28406 20.218C4.22006 21.562 5.32406 23.074 6.78806 23.026C8.19206 22.966 8.72006 22.114 10.4241 22.114C12.1161 22.114 12.5961 23.026 14.0841 22.99C15.5961 22.966 16.5561 21.622 17.4801 20.266C18.5481 18.706 18.9921 17.194 19.0161 17.11C18.9801 17.098 16.0761 15.982 16.0401 12.622C16.0161 9.814 18.3321 8.47001 18.4401 8.41001C17.1201 6.47801 15.0921 6.26201 14.3841 6.21401C12.5361 6.07001 10.9881 7.22201 10.1241 7.22201ZM13.2441 4.39001C14.0241 3.45401 14.5401 2.14601 14.3961 0.850006C13.2801 0.898006 11.9361 1.59401 11.1321 2.53001C10.4121 3.35801 9.78806 4.69001 9.95606 5.96201C11.1921 6.05801 12.4641 5.32601 13.2441 4.39001Z" fill="white"/>
</svg>
